<svg version="1" xmlns="http://www.w3.org/2000/svg" width="682.667" height="682.667" viewBox="0 0 512.000000 512.000000"><path d="M232 1.1c-49.1 4.7-98.1 24.6-136.6 55.7C35.5 105 0 179.2 0 256c0 57.7 20.4 115.5 56.8 160.6C105 476.5 179.2 512 256 512c57.7 0 115.5-20.4 160.6-56.8C476.5 407 512 332.8 512 256c0-57.7-20.4-115.5-56.8-160.6C411.9 41.6 348.1 7.5 278.5 1c-12.5-1.1-34-1.1-46.5.1zm-73.8 242.3c13.5 62 24.9 113.4 25.2 114.2.8 2 4.4 1.7 5-.4.5-1.8 16.6-73.8 37.2-167.2 6.9-31.1 12.7-57.3 13-58.3.5-1.5 1.9-1.7 10.5-1.7 9.8 0 9.9 0 9.4 2.2-1.7 7-56.7 244.8-57.2 247l-.6 2.8h-30.5l-2.1-8.8c-6.6-28.4-54.1-240.9-54.1-242 0-1 2.4-1.2 9.7-1l9.7.3 24.8 112.9zM398 140.5V151h-81v94h63v21h-63v95h82v21H297V130h101v10.5z"/></svg>